<?xml version="1.0" encoding="utf-8"?>
<!-- Generator: Adobe Illustrator 28.0.0, SVG Export Plug-In . SVG Version: 6.00 Build 0)  -->
<svg version="1.1" id="Layer_1" xmlns="http://www.w3.org/2000/svg" xmlns:xlink="http://www.w3.org/1999/xlink" x="0px" y="0px"
	 viewBox="0 0 897.3 581.2" style="enable-background:new 0 0 897.3 581.2;" xml:space="preserve">
<style type="text/css">
	.st0{fill:#FFFFFF;}
</style>
<g>
	<path d="M131.7,386.2c-0.5-5.9-2.9-10.7-7.2-14.3c-4.3-3.6-9.9-5.5-16.7-5.5c-4.6,0-8.7,0.9-12.3,2.5c-3.6,1.7-6.4,4-8.4,6.9
		c-2,2.9-3.1,6.3-3.1,10.1c0,2.4,0.5,4.6,1.4,6.6c0.9,2,2.3,3.7,4,5.2c1.7,1.5,3.8,2.9,6.2,4c2.4,1.1,5,2.1,7.9,3l10.4,3.1
		c3.5,1.1,6.8,2.3,9.8,3.8c3,1.4,5.6,3.1,7.9,5.1c2.2,2,4,4.3,5.2,6.9c1.2,2.6,1.9,5.6,1.9,9.1c0,5-1.3,9.5-3.9,13.4
		c-2.6,4-6.2,7.1-11,9.3c-4.7,2.3-10.3,3.4-16.7,3.4c-6.1,0-11.4-1-16-3.1c-4.5-2.1-8.1-4.9-10.7-8.6c-2.6-3.7-4.1-7.9-4.4-12.8h5.9
		c0.3,3.9,1.6,7.3,3.8,10.2c2.2,2.9,5.1,5.1,8.8,6.6c3.7,1.5,7.9,2.3,12.6,2.3c5.1,0,9.6-0.9,13.5-2.6c3.9-1.7,6.9-4.2,9.1-7.3
		c2.2-3.1,3.3-6.7,3.3-10.9c0-3.3-0.8-6.2-2.4-8.6c-1.6-2.4-3.9-4.4-7-6.2s-6.9-3.3-11.4-4.6l-11.1-3.3c-7.4-2.3-13.1-5.3-17-9.2
		c-3.9-3.9-5.9-8.7-5.9-14.5c0-4.9,1.3-9.2,3.9-13c2.6-3.8,6.1-6.8,10.6-8.9c4.5-2.2,9.5-3.2,15.1-3.2c5.6,0,10.6,1.1,15,3.3
		c4.3,2.2,7.7,5.2,10.3,8.9c2.5,3.8,3.9,8.1,4.2,12.9H131.7z"/>
	<path d="M178.4,458.9c-4.1,0-7.9-0.8-11.3-2.5c-3.4-1.6-6.1-4-8.2-7.2c-2.1-3.1-3.1-7-3.1-11.5c0-3,0.5-5.6,1.6-7.8
		c1-2.3,2.7-4.2,4.9-5.8c2.2-1.6,5-3,8.4-4.1c3.4-1.1,7.5-1.9,12.3-2.5c3.6-0.4,6.8-0.9,9.7-1.3c2.8-0.4,5.1-1.1,6.7-2
		c1.6-0.9,2.4-2.3,2.4-4.1v-3c0-5.2-1.6-9.3-4.9-12.4c-3.3-3.1-7.8-4.6-13.5-4.6c-5.1,0-9.4,1.1-12.8,3.4c-3.5,2.2-5.9,5.1-7.3,8.6
		l-5.3-2c1.4-3.4,3.3-6.2,5.9-8.5c2.6-2.3,5.5-3.9,8.9-5c3.3-1.1,6.9-1.7,10.5-1.7c3.2,0,6.2,0.4,9.1,1.3c2.9,0.9,5.5,2.3,7.7,4.1
		c2.3,1.8,4.1,4.1,5.4,7c1.3,2.8,2,6.2,2,10.1v49.7h-5.6v-12.8h-0.4c-1.2,2.7-2.9,5.1-5.1,7.2c-2.1,2.2-4.7,3.9-7.7,5.2
		C185.5,458.2,182.2,458.9,178.4,458.9z M178.9,453.6c4.4,0,8.4-1.1,11.8-3.3c3.4-2.2,6.1-5.2,8.1-9c1.9-3.8,2.9-8.1,2.9-12.9V418
		c-0.7,0.6-1.7,1.2-3.1,1.6c-1.3,0.5-2.9,0.9-4.5,1.2c-1.7,0.4-3.4,0.7-5.3,0.9c-1.8,0.3-3.6,0.5-5.3,0.7c-5.2,0.6-9.4,1.6-12.7,2.8
		c-3.3,1.3-5.6,3-7.1,5c-1.5,2.1-2.2,4.6-2.2,7.5c0,4.8,1.7,8.7,5,11.5C169.8,452.2,174,453.6,178.9,453.6z"/>
	<path d="M236.7,411.2v46.1h-5.6v-71.1h5.5v11.3h0.6c1.7-3.7,4.3-6.6,8-8.8c3.7-2.2,8-3.3,13.1-3.3c4.8,0,9,1,12.6,3.1
		c3.6,2,6.5,4.9,8.5,8.7c2.1,3.8,3.1,8.2,3.1,13.4v46.9h-5.6v-46.7c0-6-1.8-10.9-5.4-14.6c-3.6-3.7-8.3-5.5-14.2-5.5
		c-4,0-7.5,0.9-10.6,2.6c-3.1,1.7-5.5,4.1-7.3,7.2S236.7,407.1,236.7,411.2z"/>
	<path d="M330.3,458.8c-5.7,0-10.7-1.6-15-4.7c-4.3-3.1-7.6-7.5-9.9-13c-2.3-5.5-3.5-11.9-3.5-19.1c0-7.1,1.2-13.5,3.5-19
		c2.4-5.5,5.7-9.9,9.9-13.1c4.3-3.2,9.2-4.7,14.9-4.7c4.1,0,7.6,0.8,10.6,2.3c3,1.6,5.5,3.6,7.6,6.2c2.1,2.6,3.6,5.4,4.7,8.4h0.6
		v-39.6h5.6v94.8H354v-15.5h-0.7c-1.1,3.1-2.7,5.9-4.8,8.4c-2,2.6-4.6,4.6-7.6,6.2C337.9,458,334.3,458.8,330.3,458.8z M330.8,453.6
		c4.8,0,8.9-1.4,12.4-4.1c3.4-2.8,6.1-6.5,7.9-11.3c1.8-4.8,2.8-10.2,2.8-16.2c0-6-0.9-11.4-2.8-16.2c-1.8-4.7-4.5-8.5-7.9-11.2
		c-3.4-2.7-7.6-4.1-12.4-4.1c-4.9,0-9.1,1.4-12.5,4.1c-3.5,2.8-6.1,6.5-8,11.3c-1.8,4.8-2.8,10.1-2.8,16.1c0,6,0.9,11.3,2.8,16.1
		c1.8,4.8,4.5,8.6,8,11.4C321.8,452.2,325.9,453.6,330.8,453.6z"/>
	<path d="M389.4,484c-1.4,0-2.8-0.2-4.2-0.5c-1.4-0.3-2.6-0.7-3.8-1.2l1.7-5c2.9,1.1,5.5,1.5,7.9,1.2c2.4-0.3,4.5-1.4,6.3-3.2
		c1.8-1.9,3.4-4.6,4.6-8.1l3.2-8.9l-26.1-72.1h6.1l22.6,63.8h0.5l22.6-63.8h6.1l-30,83.2c-1.1,3.2-2.6,5.9-4.3,8.1
		c-1.7,2.2-3.7,3.8-5.9,4.9C394.4,483.5,392,484,389.4,484z"/>
	<path d="M502.4,484v-42.2h-0.6c-1.1,3.1-2.7,5.9-4.7,8.5c-2.1,2.6-4.6,4.6-7.6,6.2c-3,1.5-6.6,2.3-10.6,2.3
		c-5.7,0-10.6-1.6-14.9-4.7c-4.2-3.2-7.5-7.5-9.9-13.1c-2.4-5.5-3.5-11.9-3.5-19.1s1.2-13.5,3.5-19.1c2.3-5.5,5.6-9.9,9.9-13
		c4.3-3.1,9.2-4.7,15-4.7c4.1,0,7.7,0.8,10.6,2.3c3,1.6,5.5,3.6,7.5,6.2c2,2.6,3.6,5.4,4.7,8.4h0.7v-15.9h5.5V484H502.4z
		 M479.4,453.6c4.8,0,8.9-1.4,12.3-4.1c3.4-2.8,6.1-6.5,7.9-11.3s2.8-10.2,2.8-16.2c0-6-0.9-11.4-2.7-16.2
		c-1.8-4.7-4.5-8.5-7.9-11.2c-3.5-2.7-7.6-4.1-12.4-4.1c-4.9,0-9.1,1.4-12.5,4.1c-3.5,2.8-6.1,6.5-7.9,11.3
		c-1.8,4.8-2.8,10.1-2.8,16.1c0,6,0.9,11.3,2.8,16.1c1.9,4.8,4.5,8.6,8,11.4C470.3,452.2,474.5,453.6,479.4,453.6z"/>
	<path d="M526.9,457.3V453c3.3-0.1,5.6-0.8,6.8-2.3c1.2-1.4,1.9-3.4,2-5.9c0.1-2.5,0.2-5.3,0.2-8.5v-54.8c0-2.3,0-4.4,0.1-6.1
		c0.1-1.7,0.2-3.1,0.3-4.2c-1.6,0.1-3.1,0.2-4.7,0.3c-1.6,0.1-3.1,0.2-4.7,0.3v-5.7c4.8-0.1,9.6-0.2,14.4-0.2
		c4.8,0,9.8-0.1,15.1-0.1c10.1,0,18,1.8,23.7,5.3c5.7,3.6,8.5,9.2,8.3,16.9c0,2.8-0.8,5.6-2.4,8.3c-1.6,2.8-4,5.2-7.2,7.4
		c-3.2,2.1-7.2,3.6-11.9,4.5v0.3c9.6,0,16.8,2.2,21.6,6.6c4.9,4.4,7.3,9.9,7.3,16.6c0,5.3-1.3,9.9-4,13.7c-2.7,3.8-6.3,6.8-11,8.8
		c-4.6,2-9.9,3.1-15.8,3.1H526.9z M546.9,452.1c1.4,0.1,3.1,0.2,5,0.2c2,0,3.8,0.1,5.5,0.1c1.7,0,2.8,0,3.3,0c6.7,0,12.1-1.7,16.2-5
		c4.1-3.3,6.2-8.3,6.2-14.8c0-5.3-1-9.4-3.1-12.4c-2.1-3-4.8-5-8.2-6.3c-3.4-1.2-7.1-1.8-11.1-1.8c-2.6,0-5,0-7.1,0.1
		c-2.1,0-4.2,0.2-6.3,0.3v29.5c0,2.3,0,4.3-0.1,6C547.2,449.6,547.1,451,546.9,452.1z M547.3,407.4l9.5-0.3c5-0.1,8.9-1.1,11.7-3.1
		c2.9-2,4.9-4.4,6.2-7.4c1.3-3,1.8-6,1.8-9.3c-0.1-4.7-1.2-8.3-3.2-10.7c-2-2.4-4.5-4.1-7.5-5c-3-0.9-5.9-1.3-8.7-1.3
		c-2.9,0-5,0.4-6.4,1.2c-1.4,0.8-2.3,2.1-2.7,3.9c-0.4,1.8-0.7,4.3-0.7,7.6V407.4z"/>
	<path d="M606.6,453.4c2.7,0,4.6-0.7,5.6-2c1-1.3,1.7-3.2,1.8-5.6c0.2-2.4,0.3-5.2,0.3-8.3v-29.7c0-1.4,0-2.7,0.1-4
		c0.1-1.3,0.2-2.8,0.4-4.5c-1.6,0.1-3.1,0.2-4.6,0.3c-1.5,0.1-3.1,0.2-4.6,0.3v-5.5c3.8,0,6.8-0.2,8.9-0.5c2.1-0.3,3.7-0.8,4.8-1.3
		c1.1-0.5,1.9-1.1,2.5-1.7h3.8v52.7c0,1.7,0,3.3-0.1,4.6c0,1.3-0.2,2.8-0.5,4.2c1.4-0.1,2.8-0.2,4.1-0.2c1.3,0,2.7-0.1,4.1-0.2v5.3
		h-26.6V453.4z M619.1,377.9c-1.8,0-3.4-0.7-4.8-2.2c-1.4-1.5-2.1-3.3-2.1-5.5c0-2.2,0.7-4,2.2-5.5c1.4-1.5,3.1-2.3,4.9-2.3
		c2,0,3.7,0.8,5,2.3c1.3,1.5,2,3.4,2,5.5c0,2.2-0.7,4-2.2,5.5C622.7,377.2,621,377.9,619.1,377.9z"/>
	<path d="M641.9,453.4c2.7,0,4.6-0.7,5.6-2c1-1.3,1.7-3.2,1.8-5.6c0.2-2.4,0.3-5.2,0.3-8.3v-61.7c0-1.4,0-2.7,0.1-4
		c0-1.3,0.2-2.8,0.3-4.5c-1.6,0.1-3.1,0.2-4.6,0.3c-1.5,0.1-3.1,0.2-4.6,0.3v-5.5c3.8,0,6.8-0.2,8.9-0.5c2.1-0.3,3.7-0.8,4.8-1.3
		c1.1-0.5,1.9-1.1,2.5-1.7h3.8l0.1,84.6c0,1.7,0,3.3-0.1,4.6c-0.1,1.3-0.3,2.8-0.5,4.2c1.4-0.1,2.8-0.2,4.1-0.2
		c1.3,0,2.7-0.1,4.1-0.2v5.3h-26.6V453.4z"/>
	<path d="M678.7,453.4c2.7,0,4.6-0.7,5.6-2c1-1.3,1.6-3.2,1.8-5.6c0.2-2.4,0.3-5.2,0.3-8.3v-29.7c0-1.4,0-2.7,0.1-4
		c0.1-1.3,0.2-2.8,0.4-4.5c-1.6,0.1-3.1,0.2-4.6,0.3c-1.5,0.1-3.1,0.2-4.6,0.3v-5.5c3.8,0,6.8-0.2,8.9-0.5c2.1-0.3,3.7-0.8,4.8-1.3
		c1.1-0.5,1.9-1.1,2.5-1.7h3.8v52.7c0,1.7,0,3.3-0.1,4.6c0,1.3-0.2,2.8-0.5,4.2c1.4-0.1,2.8-0.2,4.1-0.2c1.3,0,2.7-0.1,4.1-0.2v5.3
		h-26.6V453.4z M691.2,377.9c-1.8,0-3.4-0.7-4.8-2.2c-1.4-1.5-2.1-3.3-2.1-5.5c0-2.2,0.7-4,2.2-5.5c1.4-1.5,3.1-2.3,4.9-2.3
		c2,0,3.7,0.8,5,2.3c1.3,1.5,2,3.4,2,5.5c0,2.2-0.7,4-2.2,5.5C694.8,377.2,693.1,377.9,691.2,377.9z"/>
	<path d="M715.3,457.3v-3.9c2.7,0,4.6-0.7,5.6-2c1-1.3,1.6-3.2,1.8-5.6c0.2-2.4,0.3-5.2,0.3-8.3v-29.7c0-1.4,0-2.8,0.1-4.2
		c0-1.4,0.2-2.8,0.5-4.3c-1.6,0.1-3.1,0.2-4.6,0.3c-1.5,0.1-3.1,0.2-4.6,0.3v-5.5c3.8,0,6.7-0.2,8.7-0.5c2-0.3,3.4-0.8,4.4-1.3
		c1-0.5,1.7-1.1,2.3-1.7h3.8c0.2,0.9,0.3,1.9,0.3,3c0,1.1,0.1,2.4,0.2,3.9c2.6-2.3,5.6-4.1,9-5.5c3.4-1.4,6.8-2.2,10.2-2.2
		c4.3,0,8,0.8,11,2.3c3,1.6,5.3,3.7,6.9,6.4c3-2.4,6.4-4.5,10.2-6.2c3.9-1.7,7.7-2.5,11.4-2.5c7.6,0,13.1,2.3,16.7,6.8
		s5.3,12,5.1,22.4l-0.1,24.3c0,1.7,0,3.3-0.1,4.6c0,1.3-0.2,2.8-0.5,4.2c1.4-0.1,2.8-0.2,4.1-0.2c1.3,0,2.7-0.1,4.1-0.2v5.3h-26.6
		v-3.9c2.7,0,4.6-0.7,5.6-2c1-1.3,1.6-3.2,1.8-5.6c0.2-2.4,0.3-5.2,0.3-8.3v-18.3c0-7.5-1.2-13.1-3.6-16.8
		c-2.4-3.7-6.2-5.6-11.3-5.5c-2.7,0-5.4,0.6-8.1,1.8c-2.7,1.2-5,2.7-7,4.6c0.4,1.4,0.8,2.9,1,4.5c0.2,1.6,0.3,3.3,0.3,5
		c-0.1,5-0.1,10.1-0.1,15.3c0,5.1,0,10.3-0.1,15.4c0,1.7,0,3.3-0.1,4.6c0,1.3-0.2,2.8-0.5,4.2c1.4-0.1,2.8-0.2,4.1-0.2
		c1.3,0,2.7-0.1,4.1-0.2v5.3h-26.6v-3.9c2.7,0,4.5-0.7,5.5-2c1-1.3,1.6-3.2,1.8-5.6c0.2-2.4,0.3-5.2,0.3-8.3l0.1-18.3
		c0.1-7.5-1-13.1-3.3-16.9c-2.3-3.8-6-5.7-11.1-5.6c-2.7,0-5.3,0.6-8,1.8c-2.6,1.2-4.8,2.7-6.6,4.5c0,1,0,2.2,0.1,3.3
		c0,1.2,0.1,2.4,0.1,3.7v33.5c0,1.7,0,3.3-0.1,4.6c0,1.3-0.2,2.8-0.5,4.2c1.4-0.1,2.8-0.2,4.1-0.2c1.3,0,2.7-0.1,4.1-0.2v5.3H715.3z
		"/>
</g>
<g id="LkIkRj.tif">
	<g>
		<g>
			<path class="st0" d="M565.1,336.4c-77.4,0-154.8,0-232.2,0c0-79.1,0-158.3,0-237.4c77.4,0,154.8,0,232.2,0
				C565.1,178.1,565.1,257.3,565.1,336.4z M438.7,309.8c0,0.4,0.1,0.7,0.1,0.9c-0.2,3.3,0,6.6,0.7,9.8c0.5,2.3,1.2,4.6,2.4,6.8
				c1.2,2.2,2.6,4,5,4.9c2,0.8,3.9,0.5,5.6-0.4c2.6-1.4,4-3.8,5-6.4c0.7-1.7,1.1-3.5,1.5-5.3c0.7-3,0.9-6.1,0.7-9.2
				c0-0.3,0.2-0.6,0.2-0.8c0.3,0.1,0.6,0.1,0.8,0.3c0.8,0.5,1.5,1.2,2.4,1.7c1.5,0.8,3,1.6,4.6,2.2c1.5,0.6,3.1,1.1,4.6,1.5
				c2.1,0.4,4.3,0.7,6.5,1c3.7,0.5,7.5,0.5,11.2-0.1c1.8-0.3,3.6-0.5,5.5-0.8c0.8-0.1,1.7-0.3,2.5-0.6c2.1-0.7,4.3-1.3,6.4-2.1
				c1.6-0.6,3-1.6,4.5-2.4c2.3-1.2,4.2-2.8,6.1-4.5c2.3-2.1,4.3-4.5,6.1-7.1c1-1.4,1.9-2.8,2.7-4.3c0.8-1.4,1.5-2.9,2.1-4.4
				c0.6-1.4,1.2-2.9,1.6-4.3c0.4-1.2,0.7-2.4,0.8-3.6c0.4-2.3,0.8-4.7,0.9-7.1c0.2-3-0.1-6-1-8.8c-0.7-2.1-1.2-4.2-2.2-6.2
				c-1.1-2.3-2.5-4.4-4.2-6.2c-2.3-2.5-4.9-4.7-7.8-6.4c-2.8-1.6-5.6-3.1-8.8-4c-2.2-0.6-4.4-1.2-6.6-1.5c-5.6-0.7-11,0.2-16,2.9
				c-2.1,1.1-4,2.5-5.7,4.2c-2.2,2.4-4.1,5-5.3,8.1c-0.7,2-1.3,4-1.5,6c-0.4,3.1-0.1,6.2,0.9,9.3c0.7,2.2,1.4,4.4,2.8,6.2
				c0.8,1.1,1.6,2.3,2.7,3.1c2.4,2,5.2,3.1,8.4,3.3c3.7,0.2,7.2-0.5,10.5-2.2c1.6-0.8,3.1-2,4.3-3.4c1.3-1.6,2.2-3.3,2.2-5.5
				c0-1-0.3-1.8-0.7-2.6c-1.3-3-3.1-3.9-6.1-3.2c-1.4,0.3-2.7,1-4,1.5c-1.4,0.6-2.8,1.1-4.4,1c-1.6-0.1-2.4-1.1-3-2.4
				c-1-2.2-0.3-4.2,0.8-6.1c1.6-2.8,4.2-4.3,7.2-5c3.6-0.8,7.3-0.8,10.9,0.4c2.6,0.9,4.8,2.3,6.6,4.3c1.4,1.5,2.4,3.2,3.2,5
				c1,2.2,1.5,4.5,1.6,6.9c0.1,2.7-0.2,5.3-1,7.9c-1,3.3-2.6,6.1-4.8,8.7c-2.8,3.2-6.4,5.5-10.3,7.1c-2.4,1-4.9,1.6-7.5,2
				c-5.5,0.8-10.8,0.2-15.9-1.8c-3.5-1.3-6.5-3.3-9.2-5.8c-2.9-2.7-5-5.9-6.5-9.5c-1.3-3.1-1.9-6.4-2.2-9.7
				c-0.5-5.6-0.3-11.2,1.1-16.7c0.5-2.1,1.1-4.2,1.9-6.2c1.3-3.3,3-6.4,5.1-9.2c1.8-2.4,4-4.5,6.4-6.3c1.8-1.3,3.6-2.5,5.6-3.3
				c2.1-0.9,4.3-1.6,6.5-2.1c2.9-0.8,6-1.2,9-1.1c2.4,0,4.7,0.3,7.1,0.5c2,0.2,3.9,0.4,5.8,0.9c2.5,0.6,5,1.4,7.4,2.3
				c1.7,0.6,3.4,1.3,5,2.1c2.9,1.4,5.7,3.1,8.2,5.1c2.6,2.1,5.1,4.3,7.2,7c1.4,1.8,2.6,3.7,3.8,5.6c0.9,1.4,1.6,2.9,2.3,4.4
				c0.6,1.4,1,2.9,1.4,4.4c0.3,0.8,0.4,1.7,0.6,2.5c0.3,1.2,1.9,1.7,2.8,1c0.4-0.3,0.8-0.7,1-1.2c1-2,1.9-3.9,2.8-5.9
				c1-2.2,1.3-4.5,1.3-6.8c0.1-2.8-0.3-5.4-1.4-8c-0.7-1.5-1.4-2.9-2.4-4.3c-1.1-1.5-2.2-3-3.8-4.1c-0.1-0.1-0.2-0.4-0.2-0.6
				c0-0.1,0.3-0.3,0.5-0.3c1.7-0.1,3.5-0.3,5.1-0.8c2.3-0.7,4.3-1.9,6.2-3.4c2.2-1.8,4.1-4.1,5.5-6.6c0.1-0.2,0.1-0.6,0-0.9
				c-0.4-0.8-0.8-1.5-1.3-2.2c-1.7-2.4-3.8-4.4-6.3-6c-2.7-1.8-5.7-2.7-9-2.8c-0.3,0-0.6-0.2-0.9-0.3c0.1-0.3,0.2-0.6,0.4-0.8
				c1.6-1.5,3.1-3,4.3-4.9c1.4-2.2,2.5-4.4,2.9-7c0.6-3.8,0.4-7.6-1-11.2c-0.9-2.3-2-4.5-3.2-6.5c-0.5-0.9-1.3-0.7-2-0.5
				c-0.5,0.1-1.1,0.7-1.2,1.1c-0.6,1.6-0.8,3.4-1.4,5c-0.8,2.1-1.8,4.3-2.9,6.3c-0.9,1.7-2.1,3.2-3.2,4.7c-2.4,3.4-5.4,6.1-8.7,8.5
				c-2,1.4-4.1,2.7-6.2,3.8c-2.6,1.3-5.2,2.6-7.9,3.5c-2.6,0.9-5.4,1.5-8.2,2c-4.3,0.9-8.6,0.9-12.9,0.7c-3-0.1-5.9-0.6-8.8-1.5
				c-1.9-0.6-3.7-1.4-5.5-2.3c-1.4-0.7-2.8-1.4-4-2.4c-2.2-1.7-4.2-3.5-6-5.7c-1.7-2.1-3.1-4.3-4.3-6.6c-0.6-1-1-2.1-1.4-3.2
				c-0.5-1.4-1-2.9-1.5-4.3c-0.3-1.2-0.6-2.5-0.8-3.8c-0.3-1.8-0.8-3.6-0.9-5.4c-0.2-2.8-0.1-5.6,0-8.4c0.1-1.7,0.3-3.4,0.6-5.1
				c0.4-1.9,1-3.8,1.7-5.7c0.6-1.5,1.3-2.9,2.1-4.3c0.8-1.3,1.8-2.6,2.9-3.7c1.4-1.4,2.8-2.8,4.4-4c2.2-1.7,4.7-2.9,7.3-3.8
				c2-0.7,4.1-1.3,6.3-1.5c4.2-0.4,8.4-0.3,12.5,0.9c2.5,0.7,4.9,1.7,7.1,2.9c2.3,1.3,4.5,2.8,6.3,4.8c1.6,1.8,3.1,3.7,4.1,5.9
				c0.5,1.2,1,2.4,1.4,3.7c0.4,1.6,0.8,3.2,0.9,4.8c0.2,2,0.2,4.1-0.5,6.1c-0.3,1.1-0.6,2.3-1,3.3c-0.6,1.4-1.4,2.7-2.2,3.9
				c-2,2.8-4.7,4.6-8,5.7c-1.6,0.6-3.2,0.7-4.9,0.7c-2.3,0.1-4.7,0-6.9-0.8c-1.8-0.6-3.4-1.5-4.7-3c-2-2.3-3.3-4.8-2.1-7.9
				c0.5-1.5,2.4-2.8,4-2.4c1.3,0.3,2.6,0.7,3.9,1.3c1.5,0.6,3,1.2,4.6,1.4c1.4,0.2,2.6-0.2,3.6-1.2c0.8-0.8,1.2-1.8,1.6-2.8
				c0.8-2,0.5-3.9-0.5-5.7c-0.9-1.8-2.3-3.1-4-4.2c-1.9-1.2-3.9-2.2-6.2-2.7c-2.4-0.5-4.9-0.7-7.4-0.2c-2.1,0.4-4.1,1.1-5.8,2.3
				c-3.9,2.8-5.9,6.8-7,11.4c-0.5,2.3-0.9,4.6-0.6,6.9c0.3,2.2,0.7,4.4,1.4,6.5c0.7,2,1.8,3.9,3,5.7c1.3,1.8,2.8,3.4,4.5,4.8
				c2.2,1.7,4.6,3.1,7.2,4c2.9,1,6,1.5,9.1,1.5c2.4,0,4.7-0.4,7-0.9c2.8-0.6,5.5-1.6,8.1-2.9c2.8-1.3,5.4-3,7.9-4.9
				c2.7-2.1,4.9-4.7,6.6-7.6c1.1-1.9,1.9-4.1,2.8-6.2c0.9-2.2,1.3-4.6,1.5-7c0.3-3.8,0.1-7.7-0.9-11.4c-0.4-1.5-0.7-3.1-1.3-4.5
				c-0.8-2.1-1.6-4.1-2.6-6.1c-1.9-3.9-4.4-7.5-7.5-10.7c-2.5-2.6-5.1-5-8.2-6.7c-1.3-0.7-2.6-1.4-3.9-2.1c-1.1-0.5-2.2-1-3.3-1.4
				c-1.8-0.6-3.7-1.1-5.6-1.5c-2-0.4-3.9-0.9-5.9-1c-3.8-0.2-7.7-0.2-11.5,0c-2.5,0.1-4.9,0.8-7.4,1.3c-1.6,0.4-3.2,1-4.7,1.7
				c-2.1,0.8-4,2-5.7,3.4c-0.2,0.2-0.5,0.2-0.7,0.3c-0.1-0.3-0.2-0.5-0.2-0.8c-0.1-2.4-0.1-4.8-0.2-7.2c-0.1-1.2-0.4-2.4-0.7-3.6
				c-0.3-1.3-0.7-2.5-1.2-3.7c-0.7-1.5-1.6-2.9-2.5-4.3c-0.8-1.2-2.1-2.1-3.5-2.6c-3.7-1.2-8.1,1-9.6,4.7c-0.5,1.2-1.1,2.3-1.4,3.6
				c-0.6,2.3-1.3,4.7-1.6,7.1c-0.3,2-0.1,4.1-0.1,6.1c0,0.3,0,0.6-0.1,1.1c-0.4-0.2-0.6-0.3-0.8-0.4c-0.8-0.6-1.6-1.3-2.5-1.8
				c-2-1.3-4.2-2.2-6.5-2.9c-1-0.3-2-0.6-3-0.8c-2.1-0.4-4.1-1-6.2-1.1c-3.4-0.2-6.9-0.1-10.3,0c-0.8,0-1.5,0.2-2.3,0.3
				c-2.4,0.3-4.7,0.7-7,1.5c-1.6,0.6-3.3,0.8-4.8,1.5c-2.4,1.1-4.8,2.4-7,3.8c-1.6,1-3,2.1-4.3,3.4c-1.7,1.6-3.3,3.4-4.7,5.2
				c-1.5,1.9-2.7,3.9-4,5.9c-0.5,0.8-0.9,1.7-1.3,2.6c-0.6,1.2-1.2,2.4-1.7,3.6c-0.6,1.5-1,3.1-1.5,4.7c-1,2.9-1.3,6-1.4,9
				c-0.1,2.9,0.1,5.7,0.9,8.5c0.6,2.1,1.2,4.2,2.1,6.2c1.1,2.3,2.5,4.4,4.2,6.3c2.6,2.9,5.4,5.3,8.8,7.2c1.8,1,3.7,1.9,5.6,2.7
				c1.5,0.6,3.1,1.1,4.7,1.5c1.5,0.4,3,0.6,4.6,0.8c3,0.5,5.9,0.2,8.8-0.3c1.7-0.3,3.5-1,5.1-1.7c1.7-0.8,3.4-1.7,4.9-2.8
				c2.8-2.1,5.1-4.6,6.7-7.7c0.8-1.6,1.6-3.2,2.1-4.9c0.8-2.7,1-5.5,0.7-8.3c-0.2-1.6-0.4-3.2-0.8-4.8c-0.6-1.9-1.3-3.7-2.3-5.4
				c-1.2-2-2.7-3.7-4.6-4.9c-2.5-1.6-5.2-2.3-8.2-2.4c-2.9,0-5.7,0.5-8.4,1.8c-0.9,0.4-1.8,0.8-2.5,1.4c-1.4,1-2.6,2.1-3.6,3.6
				c-0.9,1.4-1.5,3-1.3,4.7c0.2,1.5,0.6,3,1.7,4.2c0.5,0.5,1.2,1,1.9,1.3c2.2,0.8,4.2-0.3,6.2-0.9c1.5-0.5,2.9-1,4.4-1.5
				c0.4-0.1,0.9-0.1,1.3,0.1c1.9,0.7,2.9,2.1,3,4.1c0.1,2.2-0.7,4.1-2.1,5.8c-1.8,2.1-4.2,3.3-6.8,3.8c-3.7,0.6-7.5,0.7-11.1-0.9
				c-1.6-0.7-3.1-1.5-4.5-2.6c-2.7-2.3-4.5-5.1-5.3-8.5c-0.3-1.2-0.3-2.4-0.7-3.6c-0.7-2.5,0-4.8,0.4-7.2c0.2-1.6,1-3.1,1.6-4.6
				c0.9-2.3,2.4-4.3,4-6.2c2-2.2,4.3-3.9,6.9-5.3c1.3-0.7,2.5-1.4,3.9-1.8c2.3-0.7,4.6-1.3,7-1.7c1.8-0.3,3.7-0.2,5.6-0.2
				c2.8,0,5.6,0.6,8.3,1.4c1.7,0.5,3.3,1.4,4.9,2.2c2.4,1.1,4.5,2.8,6.4,4.6c2,1.9,3.7,4.1,4.9,6.6c0.8,1.8,1.7,3.6,2.3,5.5
				c0.6,2,1,4.1,1.1,6.1c0.6,6.4,0.4,12.8-1.5,19c-0.7,2.4-1.5,4.7-2.6,7c-1.1,2.4-2.5,4.7-4.1,6.8c-2.7,3.7-6.2,6.4-10.1,8.6
				c-2.5,1.4-5.2,2.2-7.9,3c-1.9,0.5-3.8,0.7-5.8,0.8c-2.7,0.1-5.4,0.1-8.1,0c-4.2,0-8.3-0.9-12.3-2.2c-2.4-0.7-4.8-1.8-7.1-2.8
				c-3.8-1.6-7.2-3.9-10.5-6.4c-3.7-2.9-6.7-6.3-9.3-10.3c-0.7-1-1.2-2.1-1.7-3.2c-0.5-1-1.2-2.1-1.6-3.2c-0.7-2.1-1.3-4.3-1.9-6.4
				c-0.2-0.7-0.6-1.2-1.4-1.3c-1.1-0.2-1.9,0.4-2.6,1.7c-1.1,2.1-2.2,4.2-2.8,6.4c-0.4,1.4-0.8,2.8-0.9,4.2
				c-0.2,2.4-0.3,4.9,0.5,7.3c0.5,1.4,0.8,2.8,1.5,4.1c1.1,1.9,2.3,3.8,4,5.3c0.7,0.6,1.3,1.3,2,2.1c-0.6,0.1-0.9,0.1-1.2,0.2
				c-1.4,0.2-2.9,0.3-4.2,0.7c-2.8,0.8-5.2,2.2-7.4,4.2c-1.7,1.6-3.2,3.3-4.5,5.3c-0.5,0.8-0.6,1.5-0.1,2.2c0.4,0.6,0.8,1.2,1.2,1.8
				c1.7,2.5,3.9,4.5,6.5,6.1c2.2,1.3,4.6,2.2,7.2,2.4c0.5,0,1.1,0.1,1.6,0.2c0.2,0,0.4,0.2,0.5,0.3c0.1,0.1-0.1,0.3-0.2,0.5
				c-0.3,0.3-0.6,0.5-0.8,0.8c-2.2,2.1-4.1,4.6-5.3,7.4c-1,2.3-1.6,4.8-1.5,7.4c0.1,1.4,0,2.7,0.3,4.1c0.4,1.7,1,3.5,1.6,5.1
				c0.7,1.8,1.7,3.4,2.6,5.1c0.6,1.1,2.1,1.3,2.8,0.3c0.4-0.7,0.6-1.5,0.9-2.3c0.6-1.9,1.2-3.8,1.9-5.7c1.4-3.7,3.5-6.9,6-9.9
				c2.1-2.5,4.4-4.7,7-6.7c2.5-1.9,5.1-3.6,7.8-5c1.9-0.9,3.9-1.8,5.9-2.5c2.4-0.8,4.8-1.7,7.2-2.2c2.9-0.6,5.8-1,8.8-1.2
				c3.9-0.4,7.9,0,11.7,0.7c1.7,0.3,3.4,0.9,5,1.5c1.5,0.6,3,1.2,4.4,2c1.6,0.9,3.2,1.8,4.6,3c1.6,1.3,3.1,2.8,4.5,4.4
				c1.3,1.5,2.5,3.2,3.6,5c0.9,1.4,1.6,3,2.2,4.5c0.8,2.1,1.6,4.2,2.2,6.4c0.4,1.4,0.6,2.8,0.8,4.2c1,7.2,1,14.3-1.3,21.3
				c-0.7,2.1-1.7,4-2.8,5.9c-1.2,2.1-2.9,3.8-4.6,5.5c-2.4,2.3-5.1,4-8.1,5.3c-2.4,1-4.8,1.6-7.4,2c-4.9,0.8-9.6,0.3-14.3-1.1
				c-0.7-0.2-1.3-0.5-2-0.7c-0.8-0.3-1.6-0.6-2.4-1c-1.3-0.7-2.6-1.4-3.8-2.2c-1.4-1-2.7-2.1-3.9-3.3c-1-1-1.7-2.2-2.6-3.4
				c-1.3-1.6-2.2-3.5-2.8-5.5c-1-3.4-1.5-6.8-0.9-10.3c0.6-3.5,1.9-6.7,4.1-9.5c2.5-3,5.8-4.8,9.7-5.3c4.2-0.6,8.4-0.6,12.1,1.9
				c2.5,1.6,4,3.7,4.5,6.6c0.2,1.3,0,2.5-0.7,3.6c-1,1.5-3.1,2.1-5,1.4c-1.9-0.7-3.9-1.5-5.9-2.2c-1.3-0.4-2.6-0.5-3.9,0.2
				c-1.3,0.7-1.9,1.9-2.4,3.1c-1,2.5-0.7,5,0.9,7.2c1.1,1.6,2.5,2.8,4.2,3.7c1.3,0.7,2.5,1.4,3.9,1.8c1.5,0.5,3.2,0.7,4.8,0.8
				c5.9,0.4,10.6-1.6,14-6.7c1.9-2.8,2.9-6,3.4-9.3c0.6-3.9,0.2-7.9-1.3-11.6c-0.8-2-1.8-3.9-3.1-5.7c-2-2.9-4.7-5.1-7.7-6.9
				c-1.9-1.2-4.1-1.9-6.3-2.5c-2.9-0.8-5.9-1-8.9-0.7c-2.5,0.3-4.9,0.8-7.3,1.4c-1.7,0.4-3.3,1.2-4.9,1.9c-1.5,0.7-2.9,1.5-4.3,2.3
				c-2,1.1-3.7,2.4-5.4,3.9c-2.4,2.2-4.4,4.7-6,7.6c-1.2,2.2-2.2,4.5-2.8,6.9c-0.7,2.8-1.1,5.7-1,8.6c0,1.4,0.1,2.7,0.3,4.1
				c0.3,1.9,0.7,3.8,1.1,5.7c0.2,0.8,0.4,1.5,0.7,2.2c0.7,1.9,1.4,3.9,2.3,5.8c0.9,1.8,1.9,3.5,3,5.2c0.8,1.3,1.7,2.6,2.7,3.7
				c1.5,1.8,3.2,3.5,4.9,5.1c1.4,1.3,3,2.5,4.6,3.6c1.2,0.8,2.5,1.5,3.7,2.1c1.8,0.8,3.7,1.7,5.5,2.3c1.8,0.6,3.7,1.1,5.6,1.4
				c2.9,0.5,5.8,0.9,8.8,1.1c3.3,0.3,6.7-0.1,10-0.6c1.4-0.2,2.8-0.4,4.1-0.8c2.1-0.6,4.3-1.2,6.3-2.2c1.7-0.9,3.4-1.8,4.9-3
				C438,310.1,438.3,310,438.7,309.8z"/>
			<path d="M438.7,309.8c-0.4,0.2-0.7,0.3-0.9,0.5c-1.5,1.3-3.2,2.2-4.9,3c-2,1-4.2,1.6-6.3,2.2c-1.3,0.4-2.7,0.6-4.1,0.8
				c-3.3,0.5-6.7,0.8-10,0.6c-2.9-0.2-5.9-0.6-8.8-1.1c-1.9-0.3-3.8-0.8-5.6-1.4c-1.9-0.6-3.7-1.5-5.5-2.3c-1.3-0.6-2.6-1.2-3.7-2.1
				c-1.6-1.1-3.2-2.3-4.6-3.6c-1.7-1.6-3.3-3.3-4.9-5.1c-1-1.1-1.8-2.4-2.7-3.7c-1.1-1.7-2.1-3.4-3-5.2c-0.9-1.9-1.5-3.9-2.3-5.8
				c-0.3-0.7-0.5-1.5-0.7-2.2c-0.4-1.9-0.8-3.8-1.1-5.7c-0.2-1.3-0.2-2.7-0.3-4.1c-0.1-2.9,0.3-5.8,1-8.6c0.6-2.4,1.5-4.7,2.8-6.9
				c1.6-2.8,3.6-5.4,6-7.6c1.7-1.5,3.4-2.9,5.4-3.9c1.4-0.8,2.9-1.6,4.3-2.3c1.6-0.7,3.2-1.5,4.9-1.9c2.4-0.6,4.9-1.1,7.3-1.4
				c3-0.4,6-0.1,8.9,0.7c2.2,0.6,4.4,1.3,6.3,2.5c3,1.8,5.7,3.9,7.7,6.9c1.2,1.8,2.3,3.7,3.1,5.7c1.4,3.7,1.9,7.6,1.3,11.6
				c-0.5,3.3-1.5,6.4-3.4,9.3c-3.3,5.1-8.1,7.1-14,6.7c-1.6-0.1-3.2-0.4-4.8-0.8c-1.3-0.4-2.6-1.2-3.9-1.8c-1.7-0.9-3.1-2.2-4.2-3.7
				c-1.6-2.2-1.9-4.6-0.9-7.2c0.5-1.2,1.2-2.4,2.4-3.1c1.3-0.7,2.6-0.6,3.9-0.2c2,0.6,3.9,1.4,5.9,2.2c1.9,0.7,4,0.2,5-1.4
				c0.7-1.1,0.9-2.3,0.7-3.6c-0.5-2.9-2-5-4.5-6.6c-3.8-2.4-7.9-2.4-12.1-1.9c-3.9,0.5-7.2,2.3-9.7,5.3c-2.3,2.7-3.5,5.9-4.1,9.5
				c-0.6,3.6-0.1,7,0.9,10.3c0.6,2,1.4,3.8,2.8,5.5c0.9,1.1,1.6,2.4,2.6,3.4c1.2,1.2,2.5,2.3,3.9,3.3c1.2,0.9,2.5,1.5,3.8,2.2
				c0.8,0.4,1.6,0.7,2.4,1c0.6,0.3,1.3,0.5,2,0.7c4.7,1.4,9.4,1.9,14.3,1.1c2.5-0.4,5-1,7.4-2c3-1.3,5.7-3,8.1-5.3
				c1.7-1.7,3.4-3.4,4.6-5.5c1.1-1.9,2.1-3.8,2.8-5.9c2.3-7,2.2-14.1,1.3-21.3c-0.2-1.4-0.4-2.8-0.8-4.2c-0.6-2.2-1.4-4.3-2.2-6.4
				c-0.6-1.6-1.3-3.1-2.2-4.5c-1.1-1.7-2.3-3.4-3.6-5c-1.4-1.6-2.9-3.1-4.5-4.4c-1.4-1.2-3-2.1-4.6-3c-1.4-0.8-2.9-1.4-4.4-2
				c-1.6-0.6-3.3-1.2-5-1.5c-3.9-0.7-7.8-1.1-11.7-0.7c-2.9,0.3-5.9,0.6-8.8,1.2c-2.5,0.5-4.8,1.4-7.2,2.2c-2,0.7-4,1.6-5.9,2.5
				c-2.8,1.4-5.4,3.1-7.8,5c-2.6,2-4.9,4.2-7,6.7c-2.5,3-4.7,6.2-6,9.9c-0.7,1.9-1.2,3.8-1.9,5.7c-0.3,0.8-0.5,1.6-0.9,2.3
				c-0.7,1-2.2,0.8-2.8-0.3c-0.9-1.7-1.9-3.3-2.6-5.1c-0.7-1.6-1.3-3.4-1.6-5.1c-0.3-1.3-0.2-2.7-0.3-4.1c-0.1-2.6,0.5-5,1.5-7.4
				c1.2-2.8,3-5.3,5.3-7.4c0.3-0.3,0.6-0.5,0.8-0.8c0.1-0.1,0.3-0.4,0.2-0.5c-0.1-0.2-0.3-0.3-0.5-0.3c-0.5-0.1-1.1-0.1-1.6-0.2
				c-2.6-0.2-4.9-1.1-7.2-2.4c-2.6-1.6-4.8-3.6-6.5-6.1c-0.4-0.6-0.8-1.2-1.2-1.8c-0.5-0.8-0.3-1.5,0.1-2.2c1.2-2,2.8-3.7,4.5-5.3
				c2.1-2,4.6-3.4,7.4-4.2c1.4-0.4,2.8-0.5,4.2-0.7c0.3,0,0.6-0.1,1.2-0.2c-0.8-0.8-1.4-1.5-2-2.1c-1.7-1.5-2.9-3.4-4-5.3
				c-0.7-1.2-1-2.7-1.5-4.1c-0.9-2.4-0.8-4.8-0.5-7.3c0.1-1.4,0.5-2.9,0.9-4.2c0.6-2.3,1.7-4.4,2.8-6.4c0.7-1.3,1.5-1.9,2.6-1.7
				c0.7,0.1,1.2,0.6,1.4,1.3c0.6,2.1,1.2,4.3,1.9,6.4c0.4,1.1,1,2.1,1.6,3.2c0.6,1.1,1.1,2.2,1.7,3.2c2.5,3.9,5.6,7.4,9.3,10.3
				c3.2,2.6,6.7,4.8,10.5,6.4c2.4,1,4.7,2,7.1,2.8c4,1.2,8.1,2.1,12.3,2.2c2.7,0,5.4,0.1,8.1,0c1.9-0.1,3.9-0.3,5.8-0.8
				c2.7-0.7,5.4-1.6,7.9-3c3.9-2.2,7.4-4.9,10.1-8.6c1.6-2.1,3-4.4,4.1-6.8c1.1-2.3,1.9-4.6,2.6-7c1.8-6.3,2-12.6,1.5-19
				c-0.2-2.1-0.6-4.1-1.1-6.1c-0.5-1.9-1.4-3.7-2.3-5.5c-1.2-2.5-2.9-4.7-4.9-6.6c-1.9-1.8-4-3.5-6.4-4.6c-1.6-0.8-3.2-1.6-4.9-2.2
				c-2.7-0.9-5.4-1.5-8.3-1.4c-1.9,0-3.8-0.1-5.6,0.2c-2.4,0.4-4.7,1-7,1.7c-1.3,0.4-2.6,1.1-3.9,1.8c-2.6,1.4-4.9,3.1-6.9,5.3
				c-1.7,1.8-3.1,3.8-4,6.2c-0.6,1.5-1.3,3.1-1.6,4.6c-0.4,2.4-1.1,4.7-0.4,7.2c0.3,1.2,0.4,2.4,0.7,3.6c0.9,3.4,2.7,6.2,5.3,8.5
				c1.3,1.1,2.8,2,4.5,2.6c3.6,1.5,7.4,1.5,11.1,0.9c2.6-0.4,5-1.7,6.8-3.8c1.4-1.7,2.2-3.6,2.1-5.8c-0.1-2-1.1-3.5-3-4.1
				c-0.4-0.1-0.9-0.2-1.3-0.1c-1.5,0.4-2.9,1-4.4,1.5c-2,0.7-4,1.7-6.2,0.9c-0.7-0.3-1.4-0.7-1.9-1.3c-1.1-1.2-1.5-2.7-1.7-4.2
				c-0.2-1.7,0.4-3.3,1.3-4.7c0.9-1.4,2.2-2.6,3.6-3.6c0.8-0.6,1.7-1,2.5-1.4c2.7-1.2,5.5-1.8,8.4-1.8c3,0,5.7,0.7,8.2,2.4
				c1.9,1.3,3.4,3,4.6,4.9c1,1.7,1.7,3.5,2.3,5.4c0.5,1.5,0.7,3.2,0.8,4.8c0.3,2.8,0.1,5.6-0.7,8.3c-0.5,1.7-1.3,3.3-2.1,4.9
				c-1.6,3.1-3.9,5.7-6.7,7.7c-1.5,1.1-3.2,2-4.9,2.8c-1.6,0.7-3.3,1.4-5.1,1.7c-2.9,0.6-5.9,0.9-8.8,0.3c-1.5-0.3-3.1-0.5-4.6-0.8
				c-1.6-0.4-3.2-0.9-4.7-1.5c-1.9-0.8-3.8-1.8-5.6-2.7c-3.4-1.8-6.2-4.3-8.8-7.2c-1.7-1.9-3.1-4-4.2-6.3c-0.9-1.9-1.5-4.1-2.1-6.2
				c-0.8-2.8-1-5.6-0.9-8.5c0.1-3.1,0.4-6.1,1.4-9c0.5-1.6,0.9-3.2,1.5-4.7c0.5-1.2,1.1-2.4,1.7-3.6c0.4-0.9,0.8-1.8,1.3-2.6
				c1.3-2,2.6-4,4-5.9c1.5-1.8,3.1-3.6,4.7-5.2c1.3-1.3,2.8-2.4,4.3-3.4c2.3-1.4,4.6-2.6,7-3.8c1.5-0.7,3.2-1,4.8-1.5
				c2.3-0.8,4.7-1.1,7-1.5c0.8-0.1,1.5-0.3,2.3-0.3c3.4,0,6.9-0.2,10.3,0c2.1,0.1,4.2,0.7,6.2,1.1c1,0.2,2,0.5,3,0.8
				c2.3,0.7,4.5,1.6,6.5,2.9c0.9,0.5,1.6,1.2,2.5,1.8c0.2,0.1,0.5,0.2,0.8,0.4c0-0.4,0.1-0.8,0.1-1.1c0-2-0.1-4.1,0.1-6.1
				c0.3-2.4,1-4.7,1.6-7.1c0.3-1.2,0.9-2.4,1.4-3.6c1.5-3.7,5.9-5.8,9.6-4.7c1.4,0.5,2.7,1.4,3.5,2.6c0.9,1.4,1.8,2.8,2.5,4.3
				c0.6,1.2,0.9,2.5,1.2,3.7c0.3,1.2,0.6,2.4,0.7,3.6c0.2,2.4,0.2,4.8,0.2,7.2c0,0.3,0.2,0.5,0.2,0.8c0.3-0.1,0.6-0.1,0.7-0.3
				c1.7-1.4,3.6-2.6,5.7-3.4c1.6-0.6,3.1-1.3,4.7-1.7c2.4-0.6,4.9-1.2,7.4-1.3c3.8-0.2,7.7-0.2,11.5,0c2,0.1,4,0.6,5.9,1
				c1.9,0.4,3.8,0.9,5.6,1.5c1.1,0.3,2.2,0.8,3.3,1.4c1.3,0.6,2.6,1.3,3.9,2.1c3.1,1.8,5.8,4.2,8.2,6.7c3,3.2,5.5,6.7,7.5,10.7
				c1,2,1.8,4,2.6,6.1c0.5,1.5,0.9,3,1.3,4.5c1.1,3.7,1.2,7.6,0.9,11.4c-0.2,2.4-0.6,4.8-1.5,7c-0.9,2.1-1.6,4.2-2.8,6.2
				c-1.7,2.9-4,5.5-6.6,7.6c-2.4,2-5.1,3.6-7.9,4.9c-2.6,1.2-5.3,2.3-8.1,2.9c-2.3,0.5-4.7,0.9-7,0.9c-3.1,0-6.1-0.5-9.1-1.5
				c-2.7-0.9-5.1-2.3-7.2-4c-1.7-1.4-3.2-3-4.5-4.8c-1.3-1.8-2.3-3.7-3-5.7c-0.7-2.1-1.1-4.3-1.4-6.5c-0.3-2.3,0-4.7,0.6-6.9
				c1.1-4.5,3.1-8.6,7-11.4c1.7-1.2,3.7-1.9,5.8-2.3c2.5-0.4,4.9-0.3,7.4,0.2c2.2,0.5,4.2,1.5,6.2,2.7c1.7,1.1,3.1,2.4,4,4.2
				c1,1.8,1.3,3.7,0.5,5.7c-0.4,1-0.8,2-1.6,2.8c-1,1.1-2.2,1.4-3.6,1.2c-1.6-0.2-3.1-0.8-4.6-1.4c-1.2-0.5-2.5-0.9-3.9-1.3
				c-1.5-0.4-3.4,0.9-4,2.4c-1.1,3.1,0.1,5.6,2.1,7.9c1.3,1.5,2.9,2.4,4.7,3c2.2,0.8,4.6,0.9,6.9,0.8c1.7-0.1,3.3-0.2,4.9-0.7
				c3.2-1.1,6-2.9,8-5.7c0.9-1.2,1.6-2.5,2.2-3.9c0.5-1,0.7-2.2,1-3.3c0.6-2,0.6-4,0.5-6.1c-0.1-1.6-0.5-3.3-0.9-4.8
				c-0.3-1.3-0.9-2.5-1.4-3.7c-1-2.3-2.5-4.1-4.1-5.9c-1.8-2-4-3.6-6.3-4.8c-2.3-1.2-4.6-2.2-7.1-2.9c-4.1-1.2-8.3-1.3-12.5-0.9
				c-2.1,0.2-4.2,0.8-6.3,1.5c-2.6,0.9-5.1,2.2-7.3,3.8c-1.6,1.2-3,2.6-4.4,4c-1.1,1.1-2,2.4-2.9,3.7c-0.8,1.3-1.6,2.8-2.1,4.3
				c-0.7,1.9-1.3,3.8-1.7,5.7c-0.4,1.7-0.6,3.4-0.6,5.1c-0.1,2.8-0.1,5.6,0,8.4c0.1,1.8,0.5,3.6,0.9,5.4c0.2,1.3,0.5,2.5,0.8,3.8
				c0.4,1.5,0.9,2.9,1.5,4.3c0.4,1.1,0.9,2.2,1.4,3.2c1.3,2.3,2.6,4.5,4.3,6.6c1.8,2.2,3.8,4,6,5.7c1.2,0.9,2.6,1.7,4,2.4
				c1.8,0.9,3.6,1.7,5.5,2.3c2.8,0.9,5.8,1.4,8.8,1.5c4.3,0.2,8.7,0.1,12.9-0.7c2.7-0.6,5.5-1.1,8.2-2c2.7-0.9,5.3-2.2,7.9-3.5
				c2.2-1.1,4.3-2.4,6.2-3.8c3.3-2.4,6.3-5.1,8.7-8.5c1.1-1.6,2.3-3.1,3.2-4.7c1.1-2,2-4.1,2.9-6.3c0.6-1.6,0.9-3.4,1.4-5
				c0.2-0.5,0.7-1,1.2-1.1c0.7-0.2,1.5-0.3,2,0.5c1.3,2.1,2.4,4.2,3.2,6.5c1.4,3.7,1.6,7.4,1,11.2c-0.4,2.5-1.5,4.8-2.9,7
				c-1.2,1.9-2.7,3.4-4.3,4.9c-0.2,0.2-0.3,0.5-0.4,0.8c0.3,0.1,0.6,0.2,0.9,0.3c3.2,0.1,6.2,1.1,9,2.8c2.5,1.6,4.5,3.6,6.3,6
				c0.5,0.7,0.9,1.5,1.3,2.2c0.1,0.2,0.1,0.6,0,0.9c-1.4,2.6-3.2,4.8-5.5,6.6c-1.8,1.5-3.9,2.7-6.2,3.4c-1.7,0.5-3.4,0.8-5.1,0.8
				c-0.2,0-0.5,0.2-0.5,0.3c0,0.2,0.1,0.5,0.2,0.6c1.5,1.1,2.6,2.6,3.8,4.1c1,1.3,1.8,2.7,2.4,4.3c1.1,2.6,1.4,5.3,1.4,8
				c-0.1,2.3-0.4,4.6-1.3,6.8c-0.9,2-1.8,4-2.8,5.9c-0.2,0.4-0.6,0.8-1,1.2c-0.9,0.7-2.4,0.2-2.8-1c-0.2-0.8-0.4-1.7-0.6-2.5
				c-0.4-1.5-0.8-3-1.4-4.4c-0.6-1.5-1.4-3-2.3-4.4c-1.2-1.9-2.4-3.8-3.8-5.6c-2.1-2.6-4.5-4.9-7.2-7c-2.6-2-5.3-3.7-8.2-5.1
				c-1.6-0.8-3.3-1.5-5-2.1c-2.4-0.9-4.9-1.7-7.4-2.3c-1.9-0.5-3.9-0.7-5.8-0.9c-2.4-0.2-4.7-0.5-7.1-0.5c-3-0.1-6.1,0.3-9,1.1
				c-2.2,0.6-4.4,1.3-6.5,2.1c-2,0.8-3.8,2-5.6,3.3c-2.4,1.8-4.6,3.9-6.4,6.3c-2.2,2.8-3.9,5.9-5.1,9.2c-0.8,2-1.4,4.1-1.9,6.2
				c-1.3,5.5-1.6,11.1-1.1,16.7c0.3,3.3,1,6.6,2.2,9.7c1.5,3.6,3.6,6.8,6.5,9.5c2.7,2.5,5.8,4.4,9.2,5.8c5.2,2,10.4,2.6,15.9,1.8
				c2.6-0.4,5.1-1.1,7.5-2c3.9-1.6,7.5-3.8,10.3-7.1c2.2-2.5,3.8-5.4,4.8-8.7c0.8-2.6,1.1-5.2,1-7.9c-0.1-2.4-0.7-4.7-1.6-6.9
				c-0.8-1.9-1.8-3.6-3.2-5c-1.9-2-4-3.4-6.6-4.3c-3.6-1.2-7.3-1.2-10.9-0.4c-3,0.7-5.6,2.2-7.2,5c-1.1,1.9-1.8,3.9-0.8,6.1
				c0.6,1.3,1.4,2.3,3,2.4c1.6,0.1,3-0.4,4.4-1c1.3-0.5,2.6-1.2,4-1.5c2.9-0.7,4.8,0.2,6.1,3.2c0.4,0.8,0.6,1.7,0.7,2.6
				c0,2.2-0.8,3.9-2.2,5.5c-1.2,1.4-2.7,2.6-4.3,3.4c-3.3,1.7-6.8,2.4-10.5,2.2c-3.2-0.2-6-1.4-8.4-3.3c-1-0.9-1.8-2-2.7-3.1
				c-1.4-1.8-2.1-4-2.8-6.2c-1-3-1.3-6.1-0.9-9.3c0.3-2.1,0.8-4.1,1.5-6c1.2-3.1,3-5.7,5.3-8.1c1.6-1.7,3.6-3.1,5.7-4.2
				c5-2.7,10.4-3.6,16-2.9c2.2,0.3,4.5,0.9,6.6,1.5c3.1,0.9,6,2.4,8.8,4c2.9,1.7,5.5,3.9,7.8,6.4c1.7,1.9,3.1,4,4.2,6.2
				c0.9,2,1.5,4.1,2.2,6.2c0.9,2.9,1.1,5.9,1,8.8c-0.1,2.4-0.6,4.7-0.9,7.1c-0.2,1.2-0.5,2.4-0.8,3.6c-0.5,1.5-1,2.9-1.6,4.3
				c-0.6,1.5-1.3,3-2.1,4.4c-0.8,1.5-1.8,2.9-2.7,4.3c-1.8,2.6-3.8,5-6.1,7.1c-1.9,1.7-3.8,3.3-6.1,4.5c-1.5,0.8-3,1.8-4.5,2.4
				c-2.1,0.8-4.3,1.4-6.4,2.1c-0.8,0.3-1.6,0.5-2.5,0.6c-1.8,0.3-3.6,0.5-5.5,0.8c-3.7,0.6-7.4,0.6-11.2,0.1c-2.2-0.3-4.3-0.6-6.5-1
				c-1.6-0.3-3.1-0.9-4.6-1.5c-1.6-0.6-3.1-1.4-4.6-2.2c-0.8-0.5-1.6-1.1-2.4-1.7c-0.2-0.2-0.5-0.2-0.8-0.3
				c-0.1,0.3-0.3,0.6-0.2,0.8c0.2,3.1,0,6.2-0.7,9.2c-0.4,1.8-0.8,3.6-1.5,5.3c-1,2.6-2.4,5.1-5,6.4c-1.8,0.9-3.7,1.1-5.6,0.4
				c-2.4-0.9-3.9-2.7-5-4.9c-1.2-2.1-1.9-4.4-2.4-6.8c-0.7-3.2-1-6.5-0.7-9.8C438.8,310.4,438.8,310.2,438.7,309.8z M466,221
				c-0.4-0.3-0.8-0.5-1.2-0.7c-0.2-0.1-0.5-0.1-0.8-0.3c-1.6-1.1-3.3-2-4.8-3.2c-3.9-3.3-6.9-7.3-9.2-11.8c-0.2-0.3-0.5-0.6-0.8-0.9
				c-0.2,0.3-0.3,0.5-0.4,0.7c-1.4,2.8-3.1,5.3-5.1,7.7c-2.8,3.4-6,6.4-10.2,8c-0.3,0.1-0.5,0.4-0.8,0.6c0.2,0.1,0.2,0.2,0.3,0.2
				c2.4,0.9,4.5,2.2,6.4,3.9c3.3,2.9,6.1,6.3,8.3,10.1c0.5,0.8,1,1.7,1.5,2.7c0.3-0.4,0.6-0.6,0.8-0.9c0.7-1.3,1.3-2.6,2.2-3.8
				c1.6-2.4,3.3-4.7,5.5-6.7c1.4-1.3,2.9-2.5,4.5-3.5C463.3,222.2,464.6,221.7,466,221z"/>
			<path class="st0" d="M466,221c-1.4,0.7-2.7,1.3-3.9,2c-1.6,1.1-3.1,2.3-4.5,3.5c-2.2,1.9-3.9,4.3-5.5,6.7
				c-0.8,1.2-1.4,2.6-2.2,3.8c-0.2,0.3-0.4,0.5-0.8,0.9c-0.6-1-1-1.8-1.5-2.7c-2.2-3.8-5-7.2-8.3-10.1c-1.9-1.7-4.1-2.9-6.4-3.9
				c-0.1,0-0.1-0.1-0.3-0.2c0.3-0.2,0.5-0.5,0.8-0.6c4.2-1.6,7.4-4.6,10.2-8c2-2.4,3.7-5,5.1-7.7c0.1-0.2,0.2-0.4,0.4-0.7
				c0.3,0.3,0.6,0.6,0.8,0.9c2.3,4.5,5.3,8.5,9.2,11.8c1.5,1.2,3.2,2.2,4.8,3.2c0.2,0.1,0.5,0.1,0.8,0.3
				C465.2,220.4,465.6,220.7,466,221z"/>
		</g>
	</g>
</g>
</svg>
